<svg width="18" height="20" viewBox="0 0 18 20" fill="none" xmlns="http://www.w3.org/2000/svg">
<path d="M14.8624 5.78482C14.8624 4.29825 14.2719 2.87256 13.2207 1.82139C12.1696 0.770227 10.7439 0.179688 9.25731 0.179688C7.77074 0.179688 6.34505 0.770227 5.29388 1.82139C4.24272 2.87256 3.65218 4.29825 3.65218 5.78482C3.65218 12.3241 0.849609 14.1925 0.849609 14.1925H17.665C17.665 14.1925 14.8624 12.3241 14.8624 5.78482Z" fill="#F0E6D2"/>
<path d="M10.8749 17.7324C10.7106 18.0156 10.4749 18.2506 10.1913 18.4139C9.90762 18.5773 9.58604 18.6633 9.25872 18.6633C8.9314 18.6633 8.60983 18.5773 8.32619 18.4139C8.04256 18.2506 7.80682 18.0156 7.64258 17.7324" fill="#F0E6D2"/>
<path d="M10.8749 17.7324C10.7106 18.0156 10.4749 18.2506 10.1913 18.4139C9.90762 18.5773 9.58604 18.6633 9.25872 18.6633C8.9314 18.6633 8.60983 18.5773 8.32619 18.4139C8.04256 18.2506 7.80682 18.0156 7.64258 17.7324" stroke="#A8A8A8" stroke-linecap="round" stroke-linejoin="round"/>
</svg>
