<svg width="16" height="16" viewBox="0 0 16 16" fill="none" xmlns="http://www.w3.org/2000/svg">
<path d="M13.0744 4.4684C13.5746 5.18572 13.9265 6.01408 14.0859 6.90909H16V9.09091H14.0859C13.9265 9.98592 13.5746 10.8143 13.0744 11.5316L14.4282 12.8855L12.8855 14.4282L11.5316 13.0744C10.8143 13.5746 9.98592 13.9265 9.09091 14.0859V16H6.90909V14.0859C6.01408 13.9265 5.18572 13.5746 4.4684 13.0744L3.11454 14.4282L1.57176 12.8855L2.92562 11.5316C2.42545 10.8143 2.07349 9.98592 1.91413 9.09091H0V6.90909H1.91413C2.07349 6.01408 2.42545 5.18572 2.92562 4.4684L1.57176 3.11454L3.11454 1.57176L4.4684 2.92562C5.18572 2.42545 6.01408 2.07349 6.90909 1.91413V0H9.09091V1.91413C9.98592 2.07349 10.8143 2.42545 11.5316 2.92562L12.8855 1.57176L14.4282 3.11454L13.0744 4.4684Z" fill="#F0E6D2"/>
</svg>
